/* XPM */
static char *f8c4aaed51bb410cb2106eb4f3e1f23awuiSX8RO5IU9aWnJ[] = {
/* columns rows colors chars-per-pixel */
"50 50 150 2 ",
"   c #010201",
".  c #080702",
"X  c #000A00",
"o  c #020209",
"O  c #04080B",
"+  c #001200",
"@  c #001D00",
"#  c #0E1800",
"$  c #172F00",
"%  c #223E01",
"&  c #2F381D",
"*  c #323F21",
"=  c #1C4A09",
"-  c #1D550E",
";  c #2B460E",
":  c #2C4B0E",
">  c #2B540F",
",  c #33550E",
"<  c #30580F",
"1  c #2D4513",
"2  c #2E4B13",
"3  c #2F441D",
"4  c #314615",
"5  c #314C15",
"6  c #384F17",
"7  c #30451A",
"8  c #334D1A",
"9  c #394C1D",
"0  c #235516",
"q  c #2D5314",
"w  c #235A13",
"e  c #2F5518",
"r  c #335316",
"t  c #395714",
"y  c #355915",
"u  c #395C16",
"i  c #36541A",
"p  c #39551C",
"a  c #365919",
"s  c #3A5C1B",
"d  c #3A6305",
"f  c #3C690C",
"g  c #376117",
"h  c #3B6315",
"j  c #3F6915",
"k  c #3D621C",
"l  c #3F681A",
"z  c #364524",
"x  c #3A4024",
"c  c #374B21",
"v  c #384B23",
"b  c #37452B",
"n  c #3B452C",
"m  c #3B4C2A",
"M  c #3B5422",
"N  c #3C5A21",
"B  c #3F542B",
"V  c #3F6321",
"C  c #3F6528",
"Z  c #3C7A2F",
"A  c #3C7830",
"S  c #426714",
"D  c #436A13",
"F  c #496B17",
"G  c #41651C",
"H  c #48611F",
"J  c #44691C",
"K  c #446B1C",
"L  c #446A1D",
"P  c #476E1F",
"I  c #43691C",
"U  c #486918",
"Y  c #4A6B1A",
"T  c #4B6C1D",
"R  c #486D1F",
"E  c #457017",
"W  c #405524",
"Q  c #415A23",
"!  c #465F26",
"~  c #425C20",
"^  c #40522A",
"/  c #445D29",
"(  c #415230",
")  c #435134",
"_  c #435C35",
"`  c #465D31",
"'  c #4E5A36",
"]  c #485F31",
"[  c #4F5539",
"{  c #4C5B3E",
"}  c #436721",
"|  c #416422",
" . c #426523",
".. c #426722",
"X. c #446723",
"o. c #466722",
"O. c #456524",
"+. c #436522",
"@. c #496721",
"#. c #486523",
"$. c #4D6622",
"%. c #486024",
"&. c #486626",
"*. c #416920",
"=. c #436920",
"-. c #406A20",
";. c #436822",
":. c #416B23",
">. c #446820",
",. c #446A21",
"<. c #456B20",
"1. c #476823",
"2. c #436825",
"3. c #436A27",
"4. c #466925",
"5. c #466B26",
"6. c #426D25",
"7. c #446922",
"8. c #4B6923",
"9. c #486F20",
"0. c #4B6A24",
"q. c #496E20",
"w. c #45612E",
"e. c #46642A",
"r. c #4E632B",
"t. c #486628",
"y. c #49652B",
"u. c #4A602F",
"i. c #49642D",
"p. c #4A622E",
"a. c #4C6A2A",
"s. c #477021",
"d. c #4F7B2E",
"f. c #476132",
"g. c #476330",
"h. c #4A6232",
"j. c #4C6432",
"k. c #4C6333",
"l. c #4D6833",
"z. c #516333",
"x. c #566836",
"c. c #54643D",
"v. c #53693A",
"b. c #596F3E",
"n. c #437739",
"m. c #437F39",
"M. c #505946",
"N. c #63833A",
"B. c #739A3D",
"V. c #83AF62",
/* pixels */
"                  . o       X k.1.P R P j I I L L L L l G I I j f f V.+ X X             .     X     ",
"                  . o o   X X h.o.L I I I G D l L L L L G I I j E j N.+ X   .     X   o             ",
"o                           X f...L I I G D l I L L L k l L L G l V 6.C _ X             o o         ",
"  o o o o o         X X X X X w. .D h I I G l I l G L L L k L G 3.+ -.5.l.X       O     . o o       ",
"        o o o       ' x.! @.O.5.1.l l G G G G L L L =.G k G l k s k V L G r.X             o         ",
"          o o     X z.H U U L =.1.G l L k L G ..=.G k ..k g y y y 3.l <.U $.X X X X X .   o         ",
"                X X u.@.U S l 3.-.=.G G l G ..k ..k g G l u y y G G u U Y H M ^ n X X     o .       ",
"            X X X X i.8.S D l l L G k u u u u k V u u u u u y u t G u G S N.t ~ B X     . o         ",
"  o o   X X c.! y.%.O.G h D j j h G k s u y u t u s s y s s u y y y ~ G s t t i M )     o           ",
". o   X X X @.T J J =.G I l D j u u u y y y y y u k G s k s s k k u u u a p t s ~ m X X             ",
".   X   b.$.D B.D I L  ...L j h u y u y r u r y a u  ...s u G | k , u t a a a u i W X X X X X       ",
"    X c.a.U D d D I ..V ....S h u y k u u k r y a s V V a a s u u , u s a a y y % W c 3 v X         ",
"o   X ] %.o.L l h l k k k k k u u y k k s G y a a y s u y y s y g < k +.k h y y ~ ~ 5 9 c f.{       ",
"  X X ] y.L g L l V k a a a s u y y k k | G a y a y a a a a y y < g V | g g y y r 6 6 5 e 5 v X     ",
"o X X k.G h 9.h l l g a a p a s y s s L | s a y s y y a a a y y a e N N s u y a 9 6 ; r 2 M z X     ",
"    X ] a.G K D j j k a a a N k s G s +.G u i y a y a y y y y a a e i M a y y a 5 5 6 5 5 1 c X     ",
"  . X k.#.G U J l u a g a y y L u s G k s a a a a a a a a a a a r a a a r a a M p i 2 5 2 ; 7 v n   ",
"    X ` #.G G J L k a e a k u k k u u y y y i a a a y a a a a a a a a a p p p r i 5 5 5 2 2 5 8 n X ",
"  X + g.a.=.G S L G a a g  .H G k s y s k s a a a a a a a a a a a a a a a a p r 5 2 5 e 8 2 8 7 * X ",
"X X X e. .G q.P k G g a a k s u ~ u u |  .s a a a a a a a y a a a a a a a M a r 2 5 5 i 8 2 8 9 ) X ",
"+ + +  .8.1.I h l k k a u u t t u y y u u u a a a a a a a a a a y y a a s s i r r p p i 8 2 r c * X ",
"n.0 q  .&.H k L l g y u G H s u t r r y y a a a a y a a a a a a u u a a t i t r e p r y 5 2 r v .   ",
"N.- w q r , r g l g < g G H +.s y y y s s a a a a a a a a a a a u p s i r r r r 2 r 5 5 1 2 r 8     ",
"Z - q 5 : 5 s V l k < < u ~ s y y u y y a a a a a a a a a a a y i s i y r r r r 2 5 2 2 5 9 p v X . ",
"Z - q 5 4 6 ! y.V y < u u L G g y a k a e a N a a a a a a a a a t i s i a r r : r r p p 5 2 r 9 [   ",
"@ = e 8 4 9 / y.a > y g G G V =.s s V k a a a a i p a a i a a a s i t r 5 2 5 5 M p p r r 9 8 7 x   ",
"+ 0 2 8 4 W / 5 5 y u k s h k =.k s V N a a a e p a a a a a a a i s i s r 5 r y p p r 5 5 2 2 c & X ",
"+ a 2 8 9 4 4 6 r N s y y u k V s a a g a a a a a a a a a a a a s i i p s 5 : 5 p p 9 5 5 5 2 1 #   ",
"a N r N r r 9 5 p t i y u C ..g a y i a M e a a a i a a a a y a r 5 5 r r r 2 2 p N p 8 2 8 8 M n X ",
"p M p a N p : 5 r 5 r p a a u a a y a a a a a M a a a a a a y a a 5 5 2 5 5 8 i 2 i r 2 2 7 8 8 x X ",
"~ p a a > y r t 5 5 p a a e y u a a a a i a a a a a a a a a a a p p r 2 2 8 a i i 2 1 8 p p 1 $ & + ",
"5 p y y e s t r i r 2 q e g k k a a s V e a N e a M a a i a a a p p a r 2 2 2 r 2 2 8 7 1 5 8 2 9 5 ",
"s t a a i y 5 5 5 5 5 r s k s u u k k u y a a i p a p a p p p y r a i r r 2 2 5 7 5 5 4 5 5 5 7 8 8 ",
"s a p p p i r 5 : 5 : 5 i ~ p s s k k a y a y y a p p i M r a r 5 y a p p r 2 2 5 5 5 5 2 2 2 2 8 r ",
"y a p p p r r 5 r r r 5 9 a a y u g | s a q r y i p i r p a 5 r r r 5 r M p 5 2 5 4 5 9 7 5 8 9 7 2 ",
"5 r a a t r : 5 r p p r r r r a y u | G a y q 2 a p r i p p r r r a 2 5 r r 5 5 4 5 7 5 2 5 8 p i 8 ",
": : > r i p r 5 r p r r 2 2 r y y s V ..a y > r N r r 5 i p a 5 p p 5 2 2 2 2 7 5 5 5 5 2 2 2 5 i 8 ",
", : 5 r s i r 5 2 r 5 2 2 q 5 a s k s s a r 5 2 i r 2 2 r a r 2 p p a 5 2 2 2 5 5 3 2 5 2 2 2 e 8 i ",
"r r r t p r 6 5 5 r 2 2 2 2 5 a t p p s y r r 2 i r 2 5 r 8 2 2 8 r i 5 5 1 7 5 5 2 3 5 8 5 8 8 2 5 ",
"s i p ~ s i r 5 r r r 2 2 2 2 8 5 a a 5 r r r 2 e 8 r 5 p 9 2 2 2 8 9 2 5 2 5 8 3 5 2 2 2 2 2 5 1 ; ",
"i s 5 s i s 5 r p 9 2 r 5 2 5 2 a r r r 5 5 5 , 2 r p 9 2 8 2 2 2 5 5 3 5 5 3 2 2 5 8 2 3 2 5 2 5 r ",
"i : i r ~ 5 r 5 r r r 5 5 2 5 5 9 5 5 5 5 5 5 2 2 r p r 5 5 8 2 8 5 5 2 5 5 5 2 e 2 5 1 e 7 7 r : 5 ",
"5 + ~ p r N i p 2 r p 8 7 e e 8 5 2 2 2 5 5 5 5 2 i p 8 5 2 5 5 7 7 5 5 5 2 5 2 1 5 e 1 8 8 8 1 5 r ",
"6 r 5 5 p 5 i a 2 a M 5 5 i c 8 5 2 5 2 r 5 5 5 2 8 p a 7 2 2 2 5 2 5 5 5 3 5 3 2 c 8 8 8 1 8 2 9 7 ",
"5 1 5 5 r i r ; 5 r a 5 5 p i 7 8 5 2 7 8 p 5 5 2 9 r 5 8 2 5 7 2 5 5 7 5 5 5 q 2 2 1 5 v 8 9 v ) X ",
"/ 5 5 5 2 5 5 r 5 5 5 2 e 9 r 2 7 8 2 5 7 i 5 5 2 5 5 2 2 5 8 2 8 2 5 2 7 2 5 5 / 9 p 2 8 ^ 7 v M.  ",
"2 5 5 2 r 5 5 ; 5 : 2 5 2 8 7 2 8 4 7 5 5 9 5 5 2 5 5 7 7 5 8 7 5 2 5 5 5 5 5 5 i 2 i & 7 9 v m     ",
"M M 2 9 : 5 2 5 r r 2 q 8 2 5 5 5 5 5 4 5 5 5 5 2 2 8 2 5 2 5 5 5 7 5 5 5 e 8 8 c 3 v m z X X X     ",
"r p 5 5 5 5 5 5 2 r : 5 5 5 6 8 8 5 9 2 5 5 5 5 5 ; i 4 5 5 6 5 2 5 p 7 q 2 8 z b b                 ",
"9 6 5 5 5 2 2 2 r s 5 r 5 5 9 5 5 5 5 5 5 5 5 5 5 5 p 5 5 5 i 5 q i r 8 i q + X X +                 "
};
