/* XPM */
static char *_f6f4e803bf94eabb353309a9e1e3771Ijh8Da4RMWzA8L8Y[] = {
/* columns rows colors chars-per-pixel */
"50 35 164 2 ",
"   c None",
".  c #141014",
"X  c #392B2B",
"o  c #3E2F30",
"O  c #52352D",
"+  c #4E3D3D",
"@  c #573A31",
"#  c #5B3F34",
"$  c #553F3B",
"%  c #593F39",
"&  c #5F4236",
"*  c #5F453A",
"=  c #644335",
"-  c #62473A",
";  c #694739",
":  c #664B3D",
">  c #6C4C3D",
",  c #714D3E",
"<  c #72503F",
"1  c #463D43",
"2  c #5A4643",
"3  c #654C42",
"4  c #6A4F41",
"5  c #714F40",
"6  c #6D5244",
"7  c #64514C",
"8  c #6C554A",
"9  c #735444",
"0  c #795646",
"q  c #725847",
"w  c #7A5947",
"e  c #725749",
"r  c #785648",
"t  c #755A4B",
"y  c #7B5C4C",
"u  c #665452",
"i  c #6E5750",
"p  c #6D5952",
"a  c #735C53",
"s  c #7B5F51",
"d  c #7D604E",
"f  c #7C6254",
"g  c #776159",
"h  c #7C645A",
"j  c #7E695F",
"k  c #7E6660",
"l  c #7E6A62",
"z  c #815E4C",
"x  c #805F50",
"c  c #81614F",
"v  c #836354",
"b  c #896655",
"n  c #866857",
"m  c #826659",
"M  c #8A675A",
"N  c #856A5C",
"B  c #8A6C5D",
"V  c #8A705F",
"C  c #846C63",
"Z  c #8A6E62",
"A  c #8C7364",
"S  c #867169",
"D  c #8B746A",
"F  c #8E786B",
"G  c #927367",
"H  c #917565",
"J  c #927769",
"K  c #93796A",
"L  c #977A6B",
"P  c #937A6E",
"I  c #947B6E",
"U  c #947A6A",
"Y  c #987A6B",
"T  c #9C7968",
"R  c #987D6E",
"E  c #9A7F6F",
"W  c #8C7871",
"Q  c #937E74",
"!  c #9F7F70",
"~  c #987E71",
"^  c #917F78",
"/  c #958074",
"(  c #9A8375",
")  c #9E8375",
"_  c #9B8474",
"`  c #958179",
"'  c #95827A",
"]  c #9B857A",
"[  c #9D867B",
"{  c #9A867A",
"}  c #9D897C",
"|  c #A1897A",
" . c #A38B7C",
".. c #A88F7E",
"X. c #A7917F",
"o. c #9C8A85",
"O. c #9E8E85",
"+. c #A28F81",
"@. c #A49284",
"#. c #A89382",
"$. c #A3948B",
"%. c #AB968B",
"&. c #A8978E",
"*. c #A89588",
"=. c #AD988B",
"-. c #AB9A8D",
";. c #B5978B",
":. c #B19C8B",
">. c #A59691",
",. c #AB9D93",
"<. c #B19D91",
"1. c #AEA097",
"2. c #AFA39B",
"3. c #AFA399",
"4. c #B1A396",
"5. c #BAA493",
"6. c #B4A49B",
"7. c #B6A69C",
"8. c #B4A69A",
"9. c #B4A99F",
"0. c #BBAB9C",
"q. c #B7ACA5",
"w. c #B7ADA3",
"e. c #B8ACA5",
"r. c #BAADA2",
"t. c #BCB1A4",
"y. c #BBB1AC",
"u. c #BCB5AB",
"i. c #BFB9AE",
"p. c #BFB8B1",
"a. c #C1B4A5",
"s. c #C0B6AE",
"d. c #C1B6AB",
"f. c #C1B8AF",
"g. c #C3BAAD",
"h. c #C9BDAD",
"j. c #C2BBB2",
"k. c #C4BDB7",
"l. c #C4BDB2",
"z. c #C9BFB1",
"x. c #C6BFB8",
"c. c #C6C1B6",
"v. c #C9C2B5",
"b. c #C7C3BC",
"n. c #C9C3BC",
"m. c #C9C4BF",
"M. c #CAC4BA",
"N. c #CDC8BD",
"B. c #D1CBBF",
"V. c #CAC5C0",
"C. c #CECBC5",
"Z. c #CFCCC6",
"A. c #CDC9C2",
"S. c #D1CCC1",
"D. c #D1CEC9",
"F. c #D2CEC9",
"G. c #D2D0CB",
"H. c #D3D3CE",
"J. c #D4D1CD",
"K. c #D5D2CD",
"L. c #D5D4CF",
"P. c #D7D4C9",
"I. c #D5D5D0",
"U. c #DCDBD3",
/* pixels */
"                                                                                                    ",
"                                                                        o.  g                       ",
"                                                                        D C a k                     ",
"                                                                        Z C s C C                   ",
"                                                                        B Z v m C                   ",
"                                                                        M T h h Z Z                 ",
"                                                                        M ! Z a Z G                 ",
"                              M b v v b v M m M                         b T P e m G                 ",
"                      v x x z z z z z y 0 z z z v m Z                   b H Y e a D                 ",
"                  v x y r 0 9 9 5 5 5 r 0 z y y y x x Z                 b B ~ i i Z C               ",
"                v z y 9 5 , 5 5 5 ; ; 5 5 z z z w y z x m D               N P a 8 m k               ",
"            m v v z z z z y 5 , 5 , , , ; , 0 z z z z x B ~ &.x.          C F h p s v               ",
"          f y y z w w 9 0 w 0 0 0 0 9 , , , , 0 z z z b T %.s.F.K.F.n.7.[ l S C h f f S             ",
"          t q q t y w 9 < 9 9 9 0 r r 9 9 , 9 0 z B M B ) 6.x.F.I.K.n.=.m a m m f f s C             ",
"        e e t t y y 9 9 0 0 9 5 9 t y y t 0 0 r v M b Z [ q.V.F.H.I.j.| m 8 f f a s h x ` y.        ",
"      e 6 6 t s s a q 9 < 9 0 9 9 9 r t r 9 9 0 x v v B ] q.V.C.Z.F.s.( N h f v a i h Z Z 3.Z.      ",
"      8 6 8 t q q q q 9 9 < < < 9 9 9 9 w q 9 w y v M K $.u.n.n.b.A.c.{ N N V V g 2 X u / / N.U.    ",
"      6 6 8 3 6 8 t q q < > < > 4 4 6 8 q q q y y v B / 1.p.c.c.c.b.b.-.A N N V h & . 1 { F u.U.    ",
"      8 8 3 3 : 6 8 q q q > < > > > > 6 6 q q d f v V Q >.u.p.c.c.b.N.w.F N N f f 2 X 1 / A 8.U.    ",
"    d p q 8 3 : > 6 w y w q < < , 9 6 6 6 > 8 t y v M K $.q.p.p.i.c.N.c.X.j f d d f t h F j -.P.U.  ",
"  S a a 8 6 6 : : 6 t d d < < < w q q 6 6 > > q y y d V } 9.u.p.i.i.v.N.i.{ h f f f f f N N $.B.P.  ",
">.S g g g a 8 : : w d d d w d d y y y q 6 > : w q w f V / 3.u.p.i.i.c.v.v.4.A f f f f N C D -.N.B.  ",
"$.l i h j g a : : q w d d w < < v n v f f q 6 q q y f N / 9.p.j.j.i.i.v.M.c.$.A h N n N A U 9.M.v.  ",
"$.S a l l h t : > 6 q d w d d d v n V V V d q 6 q d d h / 3.j.c.v.i.g.c.v.v.0.@./ V V A F _ d.h.5.  ",
"  ' g l D N f 8 > 6 6 w w d d c n V H H H v q 6 q y y f F 1.j.c.c.j.g.l.M.M.c.0.X._ _ _ ! :.v.h.;.  ",
"    C g S D h y q < : : < w v h V V U U U B q 8 9 q y c A -.u.j.M.l.j.l.v.v.v.d.0.-.....:.a.v.v.    ",
"    ` C S W N y q 9 : * 6 d f n V H U H A B q 6 8 9 y v A } 1.i.l.l.z.c.c.c.z.j.t.t.8.0.h.h.        ",
"      ^ W F Z q < > = & 6 d f N V H L L V B q 4 6 w d f v H @.r.s.u.g.M.M.v.c.z.a.t.a.h.v.          ",
"          W C t = = & & * t d f n A U / U V t : 6 q d d c B _ ,.9.r.t.l.v.v.c.h.a.0.t.h.            ",
"            C C g 7 @ O * q q > q d H _ _ A d 6 : q y d z v H | #.*.8.z.N.N.v.h.0.5.0.g.v.          ",
"              l l u & O & * * : : f O.1.9.3.F q 6 8 q d d v B L L ) 8.g.c.v.c.v.d.8.-.0.h.S.        ",
"                  2 * O @ & & * 6 S O.1.2.t.9.F t 6 6 w y v B V A / 1.9.r.t.t.t.t.h.d.0.5.z.        ",
"                                  l ` ' ' -.:...              A A F O.&.&.O.$.,.$.,.0.a.            ",
"                                                                              ` D ~ X.:.            ",
"                                                                                                    "
};
